#!OML:ASF H:\Punching\Project 1\Capture day 1\Session 1\female.ASF
:FULLY-SPECIFIED
:DEGREES
1826
root 2.26071 15.6314 7.22978 17.9708 -8.72184 -4.61497
lowerback -3.51197 1.35854 3.1824
upperback -6.13407 1.80841 0.655127
thorax -4.29344 0.776643 -1.10654
lowerneck -11.3187 5.30502 12.606
upperneck 18.4896 6.15213 -6.5022
head 8.20352 3.19561 -3.59382
rclavicle 1.08835e-014 -4.37326e-015
rhumerus -40.7906 -10.7641 -82.1614
rradius 25.8138
rwrist 15.237
rhand -5.92049 -8.63064
rfingers 7.12502
rthumb 19.9088 -37.6309
lclavicle 1.08835e-014 -4.37326e-015
lhumerus -49.1692 4.65485 87.7876
lradius 38.8361
lwrist -4.46483
lhand 4.71489 17.1716
lfingers 7.12502
lthumb 30.098 44.7411
rfemur -18.6952 7.7887 20.1299
rtibia 24.7593
rfoot -18.9066 -24.8764
rtoes -1.25615
lfemur -17.3901 -6.92842 -15.754
ltibia 28.1487
lfoot -27.3634 29.091
ltoes 5.48445
1827
root 2.2659 15.6302 7.22898 17.8789 -8.87588 -4.53479
lowerback -3.56477 1.31543 3.06812
upperback -6.16296 1.74895 0.640117
thorax -4.29867 0.750988 -1.05734
lowerneck -11.1823 5.36178 12.6868
upperneck 18.6122 6.25495 -6.58819
head 8.23625 3.2463 -3.62767
rclavicle -1.31943e-014 1.41137e-014
rhumerus -40.7535 -10.3403 -82.3342
rradius 26.3239
rwrist 14.5531
rhand -5.56796 -8.65043
rfingers 7.12502
rthumb 20.2476 -37.6151
lclavicle -1.31943e-014 1.41137e-014
lhumerus -49.0506 4.85213 87.26
lradius 39.1369
lwrist -4.37708
lhand 5.29205 17.3054
lfingers 7.12502
lthumb 30.6485 44.7733
rfemur -18.6089 8.16252 19.9535
rtibia 24.7504
rfoot -18.9826 -25.0727
rtoes -1.19493
lfemur -17.2414 -6.85945 -15.9198
ltibia 28.081
lfoot -27.3768 29.1359
ltoes 5.57132
1828
root 2.27181 15.6284 7.22957 17.8055 -9.00524 -4.49481
lowerback -3.63587 1.2839 3.01294
upperback -6.20345 1.70431 0.62871
thorax -4.30384 0.730147 -1.03713
lowerneck -11.0403 5.41006 12.77
upperneck 18.7467 6.34746 -6.67544
head 8.27115 3.29251 -3.66389
rclavicle -1.84373e-014 1.86858e-014
rhumerus -40.7506 -9.94207 -82.4668
rradius 26.9017
rwrist 13.6667
rhand -5.16232 -8.62315
rfingers 7.12502
rthumb 20.6374 -37.546
lclavicle -1.84373e-014 1.86858e-014
lhumerus -48.8765 5.01294 86.6995
lradius 39.4626
lwrist -3.87218
lhand 5.97827 17.541
lfingers 7.12502
lthumb 31.3026 44.8844
rfemur -18.5097 8.54891 19.8195
rtibia 24.7134
rfoot -19.0654 -25.2827
rtoes -1.11727
lfemur -17.1256 -6.77501 -16.036
ltibia 28.0579
lfoot -27.4148 29.1449
ltoes 5.65629
1829
root 2.27878 15.6259 7.23159 17.7535 -9.11034 -4.5054
lowerback -3.72811 1.26534 3.03018
upperback -6.25209 1.67602 0.622908
thorax -4.3036 0.714434 -1.05117
lowerneck -10.9076 5.45123 12.8582
upperneck 18.901 6.42951 -6.76442
head 8.31373 3.33415 -3.70285
rclavicle 5.34855e-015 -7.55382e-015
rhumerus -40.7862 -9.53675 -82.5803
rradius 27.5668
rwrist 12.5755
rhand -4.79172 -8.54393
rfingers 7.12502
rthumb 20.9935 -37.4277
lclavicle 5.34855e-015 -7.55382e-015
lhumerus -48.6591 5.14557 86.1158
lradius 39.8467
lwrist -3.01354
lhand 6.64974 17.9564
lfingers 7.12502
lthumb 31.9422 45.1739
rfemur -18.3956 8.93922 19.7396
rtibia 24.6404
rfoot -19.1516 -25.4999
rtoes -1.02057
lfemur -17.0496 -6.67595 -16.0927
ltibia 28.0906
lfoot -27.4899 29.1209
ltoes 5.70819
1830
root 2.28713 15.6227 7.23489 17.7258 -9.19071 -4.56843
lowerback -3.83949 1.25681 3.12082
upperback -6.3099 1.66017 0.626272
thorax -4.30049 0.701839 -1.09637
lowerneck -10.7825 5.48538 12.9442
upperneck 19.0758 6.50209 -6.85142
head 8.36361 3.37155 -3.74207
rclavicle -4.7553e-014 -1.15295e-014
rhumerus -40.8715 -9.07771 -82.6975
rradius 28.3431
rwrist 11.2805
rhand -4.52823 -8.50526
rfingers 7.12502
rthumb 21.2466 -37.3608
lclavicle -4.7553e-014 -1.15295e-014
lhumerus -48.4173 5.26652 85.5157
lradius 40.3045
lwrist -1.91725
lhand 7.14657 18.5453
lfingers 7.12502
lthumb 32.4152 45.667
rfemur -18.2713 9.29951 19.7189
rtibia 24.5312
rfoot -19.2291 -25.701
rtoes -0.927362
lfemur -17.0173 -6.55893 -16.0903
ltibia 28.1809
lfoot -27.5891 29.0716
ltoes 5.71327
1831
root 2.29686 15.6187 7.23904 17.7202 -9.25053 -4.67399
lowerback -3.96777 1.25695 3.27232
upperback -6.37107 1.65468 0.636321
thorax -4.29003 0.691912 -1.16827
lowerneck -10.6789 5.5179 13.0366
upperneck 19.2695 6.57018 -6.94154
head 8.42382 3.4069 -3.78384
rclavicle 1.8518e-014 4.96962e-015
rhumerus -40.9977 -8.57224 -82.8144
rradius 29.2392
rwrist 9.90546
rhand -4.36132 -8.49954
rfingers 7.12502
rthumb 21.407 -37.3369
lclavicle 1.8518e-014 4.96962e-015
lhumerus -48.1596 5.38393 84.9032
lradius 40.8616
lwrist -0.718421
lhand 7.35849 19.2889
lfingers 7.12502
lthumb 32.6169 46.3691
rfemur -18.1446 9.60856 19.7482
rtibia 24.3936
rfoot -19.2915 -25.8702
rtoes -0.844924
lfemur -17.0257 -6.4298 -16.041
ltibia 28.3212
lfoot -27.7045 29.0067
ltoes 5.6675
1832
root 2.30776 15.6143 7.24355 17.7343 -9.29868 -4.80601
lowerback -4.10952 1.26409 3.45994
upperback -6.42876 1.6572 0.64999
thorax -4.26747 0.684656 -1.2562
lowerneck -10.6099 5.55119 13.127
upperneck 19.4778 6.63463 -7.02479
head 8.4949 3.44058 -3.82295
rclavicle 2.16178e-015 4.17448e-015
rhumerus -41.1485 -8.02165 -82.9312
rradius 30.2449
rwrist 8.53301
rhand -4.31717 -8.51741
rfingers 7.12502
rthumb 21.4494 -37.35
lclavicle 2.16178e-015 4.17448e-015
lhumerus -47.8849 5.50174 84.2829
lradius 41.5169
lwrist 0.416973
lhand 7.21272 20.0773
lfingers 7.12502
lthumb 32.4782 47.1862
rfemur -18.0287 9.84428 19.8108
rtibia 24.2432
rfoot -19.3358 -25.9857
rtoes -0.781084
lfemur -17.0685 -6.29306 -15.9635
ltibia 28.4946
lfoot -27.824 28.9382
ltoes 5.57228
1833
root 2.31959 15.6095 7.24783 17.7584 -9.33801 -4.94723
lowerback -4.24656 1.27285 3.65778
upperback -6.48329 1.66146 0.66603
thorax -4.24416 0.677889 -1.34741
lowerneck -10.5637 5.58467 13.2062
upperneck 19.689 6.69552 -7.09229
head 8.57009 3.4728 -3.85492
rclavicle -5.01931e-015 -2.60408e-014
rhumerus -41.322 -7.44658 -83.032
rradius 31.3439
rwrist 7.28018
rhand -4.40228 -8.49878
rfingers 7.12502
rthumb 21.3676 -37.3406
lclavicle -5.01931e-015 -2.60408e-014
lhumerus -47.6102 5.61537 83.664
lradius 42.2748
lwrist 1.33025
lhand 6.70334 20.7953
lfingers 7.12502
lthumb 31.9933 48.0026
rfemur -17.9296 9.98542 19.8911
rtibia 24.0965
rfoot -19.3614 -26.0314
rtoes -0.741362
lfemur -17.1324 -6.15005 -15.8767
ltibia 28.6823
lfoot -27.9275 28.8685
ltoes 5.4507
1834
root 2.3321 15.6048 7.25155 17.7826 -9.37419 -5.07842
lowerback -4.37046 1.28145 3.8396
upperback -6.52864 1.66561 0.680476
thorax -4.21898 0.671882 -1.4315
lowerneck -10.5518 5.6219 13.2854
upperneck 19.8992 6.75567 -7.15279
head 8.65126 3.50462 -3.88396
rclavicle -4.03781e-015 3.77691e-015
rhumerus -41.4993 -6.87622 -83.1013
rradius 32.511
rwrist 6.21577
rhand -4.6044 -8.38543
rfingers 7.12502
rthumb 21.1735 -37.2492
lclavicle -4.03781e-015 3.77691e-015
lhumerus -47.3343 5.71454 83.0571
lradius 43.1244
lwrist 1.88544
lhand 5.86731 21.2948
lfingers 7.12502
lthumb 31.1969 48.6586
rfemur -17.8523 10.0197 19.97
rtibia 23.9702
rfoot -19.3629 -25.9963
rtoes -0.746278
lfemur -17.2016 -6.00568 -15.8023
ltibia 28.8653
lfoot -28.0072 28.8023
ltoes 5.29793
1835
root 2.3452 15.6001 7.25459 17.7951 -9.40773 -5.19339
lowerback -4.46849 1.28649 3.99483
upperback -6.56106 1.66602 0.695407
thorax -4.19552 0.665353 -1.50074
lowerneck -10.5682 5.66246 13.354
upperneck 20.0983 6.81564 -7.20076
head 8.73332 3.53598 -3.90631
rclavicle -1.10139e-014 1.47101e-014
rhumerus -41.6747 -6.32116 -83.1273
rradius 33.7342
rwrist 5.35166
rhand -4.9059 -8.13593
rfingers 7.12502
rthumb 20.8838 -37.0318
lclavicle -1.10139e-014 1.47101e-014
lhumerus -47.0607 5.79075 82.4744
lradius 44.0632
lwrist 2.01936
lhand 4.8096 21.5595
lfingers 7.12502
lthumb 30.1883 49.1125
rfemur -17.7918 9.93747 20.0433
rtibia 23.8765
rfoot -19.3489 -25.8698
rtoes -0.785151
lfemur -17.2587 -5.86653 -15.7466
ltibia 29.0311
lfoot -28.0698 28.7344
ltoes 5.14475
1836
root 2.35899 15.5954 7.257 17.7834 -9.43916 -5.28739
lowerback -4.52908 1.28717 4.11961
upperback -6.58185 1.66257 0.711067
thorax -4.18173 0.658267 -1.553
lowerneck -10.5893 5.70213 13.4183
upperneck 20.2737 6.87348 -7.24766
head 8.80798 3.56566 -3.92753
rclavicle -6.80837e-015 2.90226e-014
rhumerus -41.8523 -5.79061 -83.1002
rradius 35.0115
rwrist 4.64562
rhand -5.28002 -7.74175
rfingers 7.12502
rthumb 20.5243 -36.6768
lclavicle -6.80837e-015 2.90226e-014
lhumerus -46.7991 5.83741 81.9224
lradius 45.0896
lwrist 1.74453
lhand 3.60267 21.568
lfingers 7.12502
lthumb 29.0363 49.3255
rfemur -17.7409 9.72116 20.1087
rtibia 23.8255
rfoot -19.3146 -25.6365
rtoes -0.882928
lfemur -17.2854 -5.73398 -15.7163
ltibia 29.1712
lfoot -28.1093 28.661
ltoes 5.01701
